<svg width="74" height="74" viewBox="0 0 74 74" fill="none" xmlns="http://www.w3.org/2000/svg">
<rect width="74" height="74" rx="15" fill="#0B243F"/>
<path fill-rule="evenodd" clip-rule="evenodd" d="M31.7185 10.0861C25.5605 10.5993 19.2559 12.2176 13.8446 14.6741L12 15.5115L12.0059 24.7049C12.0109 32.5649 12.0524 34.1865 12.2918 35.885C13.2846 42.9328 16.1361 49.2372 20.4414 53.9034L21.596 55.1547L22.1185 53.6089C24.8204 45.6146 31.6516 39.6815 43.5816 34.968C47.437 33.4448 50.143 32.5522 53.3607 31.7426C56.0369 31.0692 55.8335 30.9628 52.7672 31.4321C47.3178 32.266 41.5835 33.7986 36.2874 35.8365C33.0933 37.0655 27.592 39.8494 25.1067 41.4943C22.7212 43.0729 21.9426 43.667 19.9143 45.4548C19.2413 46.048 18.6421 46.5333 18.5826 46.5333C18.2219 46.5333 16.4141 41.8198 15.7654 39.1877C14.9534 35.8933 14.7877 33.8817 14.8393 27.9591L14.8856 22.6556L16.7882 27.085C17.8346 29.5211 19.667 33.7854 20.86 36.5611L23.0292 41.6078L23.5263 41.282C23.7998 41.1028 24.763 40.5191 25.6667 39.9848C26.5703 39.4503 27.3099 38.9565 27.3099 38.8872C27.3099 38.8179 26.6731 37.238 25.8949 35.3763C25.1168 33.5144 23.5478 29.7568 22.4081 27.0259L20.3363 22.0604L17.5709 22.0593L14.8055 22.058V19.6782V17.2982L15.3058 17.0419C17.3129 16.0128 21.6973 14.5723 24.9052 13.8879C29.5536 12.896 32.806 12.6061 37.8905 12.7303C45.0008 12.904 50.8854 14.136 56.7673 16.6827L58.2502 17.3248V25.3773C58.2502 33.5761 58.185 34.7997 57.5889 37.7922C57.0546 40.4751 55.3461 45.324 55.0492 45.0006C54.8397 44.7722 51.0361 39.2203 51.0361 39.1426C51.0361 39.1027 51.3428 38.916 51.7175 38.7276C54.1367 37.5118 55.6193 35.4584 55.9922 32.8068C56.0675 32.2708 56.114 31.8149 56.0954 31.7938C56.0339 31.7234 52.9028 32.8116 51.4751 33.3995C49.2198 34.3281 45.144 36.4087 43.5816 37.429C40.3316 39.5512 38.1379 41.5725 36.6538 43.8124C35.9714 44.8428 35.8954 45.0791 35.7425 46.6525L35.6612 47.4869H38.3407H41.02L41.0184 43.7123L41.0166 39.9377L43.3411 39.8988L45.6657 39.8598L48.2149 43.6734L50.7644 47.4869H52.2628C53.0872 47.4869 53.7615 47.5492 53.7615 47.6255C53.7615 47.8618 52.2612 50.0497 51.241 51.3012C49.9712 52.8589 47.1239 55.5914 45.4964 56.8144C43.1882 58.5486 40.1123 60.3924 37.5267 61.5914L36.4416 62.0947L34.4006 61.079C33.2781 60.5205 31.4722 59.5162 30.3875 58.8474L28.4155 57.6314L28.4439 55.7775L28.4723 53.9236L27.6722 53.8762C26.8836 53.8297 26.8704 53.8367 26.759 54.353C26.4509 55.7805 26.1891 57.6702 26.1909 58.4531L26.1928 59.3272L27.9136 60.4596C30.0818 61.8865 31.4305 62.6552 33.7232 63.7708C36.6276 65.1838 36.3767 65.1703 38.7527 64.0435C44.9095 61.1238 49.9074 57.3218 53.5481 52.7888C57.4922 47.878 59.8238 42.2829 60.8242 35.3287C61.0425 33.8108 61.2198 20.295 61.0578 17.5112L60.9452 15.5764L58.9165 14.6246C53.9777 12.3078 48.5765 10.8617 42.4594 10.2187C40.4351 10.0059 33.6821 9.9226 31.7185 10.0861ZM34.6842 22.2243C34.6842 22.327 33.2054 25.9728 31.3978 30.3262C29.5903 34.6797 28.1114 38.31 28.1114 38.3936C28.1114 38.477 28.6344 38.2739 29.2737 37.942C29.913 37.6102 31.3016 36.9726 32.3597 36.525C33.4178 36.0775 34.3793 35.6609 34.4964 35.5994C34.6134 35.5379 35.4847 33.5923 36.4326 31.276L38.156 27.0644L42.6322 27.0152C45.5065 26.9838 47.4055 27.0296 47.9383 27.1433C49.4861 27.4734 50.5619 28.5987 50.8119 30.1489C50.8858 30.6066 50.9938 30.7962 51.1769 30.7892C51.3199 30.7838 52.483 30.6554 53.7615 30.5039L56.086 30.2285L56.0443 29.441C55.9069 26.8455 54.0364 24.1891 51.5429 23.049C49.626 22.1723 49.559 22.1658 41.8582 22.0994C36.4345 22.0525 34.6842 22.083 34.6842 22.2243ZM41.3624 36.9567C40.9355 37.1924 40.6596 37.4093 40.7494 37.439C40.9008 37.4891 41.8239 37.0638 42.3792 36.6882C42.9149 36.3259 42.1303 36.5331 41.3624 36.9567ZM36.671 39.7176C34.9909 40.9536 34.9425 41.003 35.2477 41.1723C35.4368 41.2772 35.6764 41.1556 36.1755 40.7015C36.5456 40.3648 37.1191 39.8857 37.4496 39.637C38.0213 39.207 38.2127 38.9047 37.9134 38.9047C37.8379 38.9047 37.2787 39.2705 36.671 39.7176ZM31.0756 44.815C30.5798 45.4432 29.8784 46.4507 29.5169 47.054C28.8088 48.2355 28.8405 48.4329 29.7392 48.4381C30.1152 48.4402 30.2356 48.2903 30.7777 47.1452C31.1149 46.4327 31.697 45.4138 32.071 44.8809C32.663 44.0376 32.7154 43.8978 32.4753 43.8034C32.3236 43.7438 32.1494 43.6899 32.0883 43.6837C32.0272 43.6777 31.5715 44.1866 31.0756 44.815Z" fill="#1FB4F4"/>
</svg>
